<?xml version="1.0" encoding="UTF-8"?>
<svg xmlns="http://www.w3.org/2000/svg" viewBox="0 0 1080 1080">
  <defs>
    <linearGradient id="bgGradientIG" x1="0%" y1="0%" x2="100%" y2="100%">
      <stop offset="0%" style="stop-color:#FF6B6B;stop-opacity:1" />
      <stop offset="50%" style="stop-color:#4ECDC4;stop-opacity:1" />
      <stop offset="100%" style="stop-color:#45B7D1;stop-opacity:1" />
    </linearGradient>
    <linearGradient id="headerGradientIG" x1="0%" y1="0%" x2="100%" y2="0%">
      <stop offset="0%" style="stop-color:#6C5CE7;stop-opacity:1" />
      <stop offset="100%" style="stop-color:#A29BFE;stop-opacity:1" />
    </linearGradient>
    <linearGradient id="priceGradientIG" x1="0%" y1="0%" x2="100%" y2="0%">
      <stop offset="0%" style="stop-color:#FDCB6E;stop-opacity:1" />
      <stop offset="100%" style="stop-color:#F39C12;stop-opacity:1" />
    </linearGradient>
    <filter id="shadowIG">
      <feDropShadow dx="3" dy="3" stdDeviation="5" flood-opacity="0.3"/>
    </filter>
  </defs>
  
  <!-- Background -->
  <rect width="1080" height="1080" fill="url(#bgGradientIG)"/>
  
  <!-- Decorative elements -->
  <circle cx="150" cy="150" r="120" fill="#FFE66D" opacity="0.3"/>
  <circle cx="930" cy="930" r="150" fill="#FF6B6B" opacity="0.3"/>
  <circle cx="900" cy="200" r="90" fill="#4ECDC4" opacity="0.4"/>
  <circle cx="200" cy="880" r="80" fill="#A29BFE" opacity="0.3"/>
  <circle cx="950" cy="500" r="100" fill="#FDCB6E" opacity="0.3"/>
  
  <!-- Main content card -->
  <rect x="60" y="100" width="960" height="880" rx="30" fill="#ffffff" filter="url(#shadowIG)"/>
  
  <!-- Header Section -->
  <rect x="60" y="100" width="960" height="200" rx="30" fill="url(#headerGradientIG)"/>
  <text x="540" y="190" font-family="Arial, sans-serif" font-size="64" font-weight="bold" 
        fill="#FFE66D" text-anchor="middle">ONLINE TUTORING</text>
  <text x="540" y="250" font-family="Arial, sans-serif" font-size="36" font-weight="bold" 
        fill="#ffffff" text-anchor="middle">Classes Available Now!</text>
  
  <!-- Icon: Book -->
  <g transform="translate(500, 330)">
    <rect x="0" y="0" width="80" height="60" rx="5" fill="#FF6B6B"/>
    <rect x="10" y="10" width="60" height="50" rx="3" fill="#ffffff"/>
    <line x1="40" y1="10" x2="40" y2="60" stroke="#FF6B6B" stroke-width="2"/>
    <line x1="20" y1="25" x2="35" y2="25" stroke="#6C5CE7" stroke-width="1.5"/>
    <line x1="45" y1="25" x2="60" y2="25" stroke="#6C5CE7" stroke-width="1.5"/>
    <line x1="20" y1="35" x2="35" y2="35" stroke="#4ECDC4" stroke-width="1.5"/>
    <line x1="45" y1="35" x2="60" y2="35" stroke="#4ECDC4" stroke-width="1.5"/>
    <line x1="20" y1="45" x2="35" y2="45" stroke="#FF6B6B" stroke-width="1.5"/>
    <line x1="45" y1="45" x2="60" y2="45" stroke="#FF6B6B" stroke-width="1.5"/>
  </g>
  
  <!-- Services Section -->
  <text x="540" y="450" font-family="Arial, sans-serif" font-size="42" font-weight="bold" 
        fill="#2C3E50" text-anchor="middle">Our Services</text>
  
  <!-- Service 1 -->
  <circle cx="180" cy="530" r="12" fill="#FF6B6B"/>
  <text x="220" y="545" font-family="Arial, sans-serif" font-size="32" fill="#34495E">
    <tspan font-weight="bold" fill="#FF6B6B">Grades 1-12</tspan> - All Subjects
  </text>
  
  <!-- Service 2 -->
  <circle cx="180" cy="600" r="12" fill="#6C5CE7"/>
  <text x="220" y="615" font-family="Arial, sans-serif" font-size="32" fill="#34495E">
    <tspan font-weight="bold" fill="#6C5CE7">Spoken English</tspan> Classes
  </text>
  
  <!-- Service 3 -->
  <circle cx="180" cy="670" r="12" fill="#4ECDC4"/>
  <text x="220" y="685" font-family="Arial, sans-serif" font-size="32" fill="#34495E">
    <tspan font-weight="bold" fill="#4ECDC4">Personalized</tspan> Learning Plans
  </text>
  
  <!-- Service 4 -->
  <circle cx="180" cy="740" r="12" fill="#FDCB6E"/>
  <text x="220" y="755" font-family="Arial, sans-serif" font-size="32" fill="#34495E">
    <tspan font-weight="bold" fill="#F39C12">Experienced</tspan> Tutors
  </text>
  
  <!-- Pricing Section -->
  <rect x="200" y="800" width="680" height="110" rx="20" fill="url(#priceGradientIG)" filter="url(#shadowIG)"/>
  <text x="540" y="845" font-family="Arial, sans-serif" font-size="36" font-weight="bold" 
        fill="#2C3E50" text-anchor="middle">Special Offer</text>
  <text x="540" y="890" font-family="Arial, sans-serif" font-size="48" font-weight="bold" 
        fill="#ffffff" text-anchor="middle">₹1,000 per month</text>
  
  <!-- Contact Section -->
  <text x="540" y="945" font-family="Arial, sans-serif" font-size="28" font-weight="bold" 
        fill="#2C3E50" text-anchor="middle">📞 +91 6280345896</text>
  <text x="540" y="985" font-family="Arial, sans-serif" font-size="24" 
        fill="#FF6B6B" text-anchor="middle" font-weight="bold">✉️ randhawameenu1@gmail.com</text>
  
  <!-- Decorative corner elements -->
  <path d="M 80 120 L 110 120 L 110 150" stroke="#FFE66D" stroke-width="4" fill="none" stroke-linecap="round"/>
  <path d="M 1000 120 L 970 120 L 970 150" stroke="#FF6B6B" stroke-width="4" fill="none" stroke-linecap="round"/>
  <path d="M 80 960 L 110 960 L 110 930" stroke="#4ECDC4" stroke-width="4" fill="none" stroke-linecap="round"/>
  <path d="M 1000 960 L 970 960 L 970 930" stroke="#6C5CE7" stroke-width="4" fill="none" stroke-linecap="round"/>
</svg>
